<?xml version="1.0" encoding="UTF-8"?>
<svg width="50px" height="50px" viewBox="0 0 50 50" version="1.1" xmlns="http://www.w3.org/2000/svg" xmlns:xlink="http://www.w3.org/1999/xlink">
    <!-- Generator: Sketch 47.1 (45422) - http://www.bohemiancoding.com/sketch -->
    <title>if_print_172530</title>
    <desc>Print Icon</desc>
    <defs></defs>
    <g id="Page-1" stroke="none" stroke-width="1" fill="none" fill-rule="evenodd">
        <g id="if_print_172530">
            <rect id="Rectangle-path" x="0" y="0" width="50" height="50"></rect>
            <circle id="Oval" fill="#FFFFFF" fill-rule="nonzero" cx="43" cy="21" r="2"></circle>
            <polyline id="Shape" stroke="#FFFFFF" stroke-width="2" stroke-linecap="round" points="40 15 40 1 10 1 10 15"></polyline>
            <polygon id="Shape" stroke="#FFFFFF" stroke-width="2" stroke-linecap="round" points="40 29 40 49 10 49 10 29"></polygon>
            <path d="M10,40 L3,40 C1.896,40 1,39.104 1,38 L1,17 C1,15.896 1.896,15 3,15 L47,15 C48.104,15 49,15.896 49,17 L49,38 C49,39.104 48.104,40 47,40 L40,40" id="Shape" stroke="#FFFFFF" stroke-width="2" stroke-linecap="round"></path>
            <path d="M35,35 L15,35" id="Shape" stroke="#FFFFFF" stroke-width="2" stroke-linecap="round"></path>
            <path d="M31,39 L15,39" id="Shape" stroke="#FFFFFF" stroke-width="2" stroke-linecap="round"></path>
            <path d="M35,43 L15,43" id="Shape" stroke="#FFFFFF" stroke-width="2" stroke-linecap="round"></path>
        </g>
    </g>
</svg>
