<svg xmlns="http://www.w3.org/2000/svg" xmlns:xlink="http://www.w3.org/1999/xlink" viewBox="0 0 37.15 24"><defs><style>.cls-1{fill:url(#linear-gradient);}.cls-2{fill:#fff;}.cls-3{fill:#007a9f;}.cls-4{fill:#dae7e9;}</style><linearGradient id="linear-gradient" x1="18.54" y1="25.69" x2="18.54" y2="-12.59" gradientUnits="userSpaceOnUse"><stop offset="0" stop-color="#277fb7"/><stop offset="1" stop-color="#3cb8ea"/></linearGradient></defs><title>amex</title><g id="Layer_2" data-name="Layer 2"><g id="Layer_1-2" data-name="Layer 1"><g id="_Group_" data-name="&lt;Group&gt;"><rect id="_Path_" data-name="&lt;Path&gt;" class="cls-1" width="37.08" height="24"/><g id="_Group_2" data-name="&lt;Group&gt;"><polygon id="_Path_2" data-name="&lt;Path&gt;" class="cls-2" points="9.28 14.41 9.28 15.06 11.64 15.06 11.64 16.01 9.28 16.01 9.28 16.71 11.7 16.71 12.84 15.56 11.7 14.41 9.28 14.41"/><polygon id="_Path_3" data-name="&lt;Path&gt;" class="cls-2" points="15.84 17.02 15.84 14.11 14.42 15.56 15.84 17.02"/><path id="_Path_4" data-name="&lt;Path&gt;" class="cls-2" d="M18.19,14.39H17v.79h1.19c.35,0,.63-.17.63-.39S18.54,14.39,18.19,14.39Z"/><polygon id="_Path_5" data-name="&lt;Path&gt;" class="cls-2" points="27.21 7.43 26.64 8.67 27.77 8.67 27.21 7.43"/><path id="_Compound_Path_" data-name="&lt;Compound Path&gt;" class="cls-2" d="M37.15,12.67H34.82a2.64,2.64,0,0,0-1,.17v-.17h-3a2.79,2.79,0,0,0-1,.17v-.17H24.41v.17a2.86,2.86,0,0,0-1.11-.17H19.68v.13a3,3,0,0,0-1-.14h-4s-.61.6-.95,1l-1-1H7.29v5.76h5.52l.85-.86.84.86h3.38V17.09h.28a4.32,4.32,0,0,0,1.52-.23v1.58h2.86V17h.19c0,.11,0,.67,0,.67v.79h8.86a3.06,3.06,0,0,0,1-.19v.18h3A3.61,3.61,0,0,0,37.15,18M37,16.81a1.46,1.46,0,0,1-1.42.8H33.42v-1h1.79s.65.07.65-.33-1-.35-1-.35-1.59.13-1.59-1.24a1.3,1.3,0,0,1,1.43-1.29h2.21v1H35.17s-.62-.11-.62.3.84.3.84.3,1.25-.09,1.64.64m-18.9.62H17v1.35H14.85l-1.22-1.24L12.4,17.62H8.11V13.43h4.2l1.32,1.33L15,13.44h3.68s1.46-.15,1.46,1.23S19.62,16.27,18.13,16.27Zm6.54.32v1H23.55v-.81a.72.72,0,0,0-.78-.64H21.66v1.45H20.5V13.45h2.8s1.46-.17,1.46,1.22a1.09,1.09,0,0,1-.65,1A1,1,0,0,1,24.67,16.59Zm4.16-2.18H26.4v.65h2.37v1H26.4v.7h2.43v.91H25.24V13.45h3.59Zm2.72,3.2H29.36v-1h1.79s.65.07.65-.33-1-.35-1-.35-1.59.13-1.59-1.24,1.44-1.29,1.44-1.29h2.21v1H31.1s-.61-.11-.61.3.83.3.83.3,1.76-.12,1.76,1.14A1.38,1.38,0,0,1,31.55,17.61Z"/><path id="_Path_6" data-name="&lt;Path&gt;" class="cls-2" d="M19.08,7.79c0-.22-.28-.4-.63-.4H17.26v.79h1.19C18.8,8.18,19.08,8,19.08,7.79Z"/><polygon id="_Path_7" data-name="&lt;Path&gt;" class="cls-2" points="2.54 7.43 1.97 8.67 3.1 8.67 2.54 7.43"/><path id="_Path_8" data-name="&lt;Path&gt;" class="cls-2" d="M22.85,14.4H21.66v.79h1.19c.34,0,.63-.17.63-.39S23.19,14.4,22.85,14.4Z"/><path id="_Path_9" data-name="&lt;Path&gt;" class="cls-3" d="M31.32,15s-.83.05-.83-.3.61-.3.61-.3h1.78v-1H30.67s-1.44-.08-1.44,1.29S30.82,16,30.82,16s1,0,1,.35-.65.33-.65.33H29.36v1h2.19a1.38,1.38,0,0,0,1.53-1.46C33.08,14.89,31.32,15,31.32,15Z"/><polygon id="_Path_10" data-name="&lt;Path&gt;" class="cls-3" points="25.24 17.62 28.83 17.62 28.83 16.71 26.4 16.71 26.4 16.01 28.77 16.01 28.77 15.06 26.4 15.06 26.4 14.41 28.83 14.41 28.83 13.45 25.24 13.45 25.24 17.62"/><rect id="_Path_11" data-name="&lt;Path&gt;" class="cls-3" x="20.84" y="6.44" width="1.16" height="4.19"/><path id="_Compound_Path_2" data-name="&lt;Compound Path&gt;" class="cls-3" d="M17.26,9.17h1.12a.71.71,0,0,1,.77.63v.81h1.13v-1a1,1,0,0,0-.56-.94,1.09,1.09,0,0,0,.65-1c0-1.39-1.46-1.22-1.46-1.22h-2.8v4.17h1.15Zm0-1.78h1.19c.35,0,.63.18.63.4s-.28.39-.63.39H17.26Z"/><polygon id="_Path_12" data-name="&lt;Path&gt;" class="cls-3" points="15.51 9.71 13.07 9.71 13.07 9.01 15.45 9.01 15.45 8.06 13.07 8.06 13.07 7.41 15.51 7.41 15.51 6.44 11.91 6.44 11.91 10.62 15.51 10.62 15.51 9.71"/><path id="_Compound_Path_3" data-name="&lt;Compound Path&gt;" class="cls-3" d="M24,10.61h1.8l.4-.87h2.11l.41.87h2.26V7.82l1.83,2.79h1.59V6.44H33.18V9.19l-1.8-2.75H29.75v3.79L28,6.44H26.41L25,9.56c-.05,0-1.37.45-1.38-1,0-.08,0-.18,0-.29a.9.9,0,0,1,.85-.91h1.17V6.44l-1.42,0c-.07,0-1.82-.08-1.82,2.24A1.86,1.86,0,0,0,24,10.61Zm3.26-3.18.56,1.24H26.64Z"/><path id="_Compound_Path_4" data-name="&lt;Compound Path&gt;" class="cls-3" d="M24.76,14.67c0-1.39-1.46-1.22-1.46-1.22H20.5v4.17h1.16V16.17h1.11a.72.72,0,0,1,.78.64v.81h1.12v-1a1,1,0,0,0-.56-.94A1.09,1.09,0,0,0,24.76,14.67Zm-1.91.52H21.66V14.4h1.19c.34,0,.63.18.63.4S23.19,15.19,22.85,15.19Z"/><path id="_Compound_Path_5" data-name="&lt;Compound Path&gt;" class="cls-3" d="M18.64,13.43H15l-1.33,1.32-1.32-1.33H8.11v4.19H12.4l1.23-1.24,1.22,1.24H17V16.27h1.13c1.49,0,2-.38,2-1.61C20.1,13.28,18.64,13.43,18.64,13.43ZM11.7,16.71H9.28V16h2.36v-1H9.28v-.65H11.7l1.14,1.15Zm4.14.31-1.42-1.46,1.42-1.45Zm2.35-1.84H17v-.79h1.19c.35,0,.63.18.63.4S18.54,15.18,18.19,15.18Z"/><path id="_Path_13" data-name="&lt;Path&gt;" class="cls-3" d="M37,15.65c-.39-.73-1.64-.64-1.64-.64s-.84.05-.84-.3.62-.3.62-.3h1.77v-1H34.73a1.3,1.3,0,0,0-1.43,1.29c0,1.37,1.59,1.24,1.59,1.24s1,0,1,.35-.65.33-.65.33H33.42v1h2.19a1.46,1.46,0,0,0,1.42-.8,1.81,1.81,0,0,0,.12-.66A1.05,1.05,0,0,0,37,15.65Z"/><path id="_Compound_Path_6" data-name="&lt;Compound Path&gt;" class="cls-3" d="M9.45,6.44,8.19,9,6.93,6.44H5.11v3.84L3.35,6.44H1.73L0,10.22v.39H1.08l.4-.87H3.59l.4.87H6.26V7.75l1.46,2.86h.94l1.45-2.88v2.88h1.16V6.44ZM2,8.67l.57-1.24L3.1,8.67Z"/><g id="_Group_3" data-name="&lt;Group&gt;"><rect id="_Path_14" data-name="&lt;Path&gt;" class="cls-4" y="10.22" height="0.4"/><path id="_Compound_Path_7" data-name="&lt;Compound Path&gt;" class="cls-2" d="M32.3,5.6v.72c0-.08-.47-.72-.47-.72h-3v.67s-.31-.67-.31-.67H25.81l-1.6,0A3,3,0,0,0,22.83,6V5.6H20v.16a2.8,2.8,0,0,0-1.11-.16h-10L8.16,7.06,7.45,5.6H4.22v.72L3.89,5.6H1.13L0,8.22v2L1.73,6.44H3.35l1.76,3.84V6.44H6.93L8.19,9,9.45,6.44h1.82v4.17H10.11V7.73L8.66,10.61H7.72L6.26,7.75v2.86H4l-.4-.87H1.48l-.4.87H0v.74H1.62l.4-.88H3l.41.88H7.09v-.11l0,.11h2l0-.09v.09h8.87V9.9h.19c0,.11,0,.66,0,.66v.79h4.56V11a2.67,2.67,0,0,0,1,.35h2.5s.31-.68.39-.88h1l.41.88h3.67V10.6l.5.75h2.92V5.6ZM15.51,7.41H13.07v.65h2.38V9H13.07v.71h2.44v.9h-3.6V6.44h3.6Zm4.77,2.17v1H19.15V9.8a.71.71,0,0,0-.77-.63H17.26v1.44H16.11V6.44h2.8s1.46-.17,1.46,1.22a1.09,1.09,0,0,1-.65,1A1,1,0,0,1,20.28,9.58ZM22,10.63H20.84V6.44H22Zm12.35,0H32.76L30.93,7.82v2.79H28.67l-.41-.87H26.15l-.4.87H24a1.86,1.86,0,0,1-1.55-2c0-2.32,1.75-2.22,1.82-2.24l1.42,0v.94H24.47a.9.9,0,0,0-.85.91c0,.11,0,.21,0,.29,0,1.42,1.33,1,1.38,1l1.43-3.12H28l1.73,3.79V6.44h1.63l1.8,2.75V6.44h1.17Z"/></g></g></g></g></g></svg>
