<?xml version="1.0" encoding="utf-8"?>
<!-- Generator: Adobe Illustrator 22.0.1, SVG Export Plug-In . SVG Version: 6.00 Build 0)  -->
<svg version="1.1" id="Layer_1" xmlns="http://www.w3.org/2000/svg" xmlns:xlink="http://www.w3.org/1999/xlink" x="0px" y="0px"
	 viewBox="0 0 20 25" style="enable-background:new 0 0 20 25;" xml:space="preserve">
<style type="text/css">
	.st0{fill:#8A92A5;}
</style>
<path class="st0" d="M18.5,0h-17C0.7,0,0,0.7,0,1.5v15.9v0.1v3v3C0,24.3,0.7,25,1.5,25h17c0.8,0,1.5-0.7,1.5-1.5v-3v-3v-0.1V1.5
	C20,0.7,19.3,0,18.5,0z M1,1.5C1,1.2,1.2,1,1.5,1h17C18.8,1,19,1.2,19,1.5v16c0,0.3-0.2,0.5-0.5,0.5h-17C1.2,18,1,17.8,1,17.5V1.5z
	 M19,23.5c0,0.3-0.2,0.5-0.5,0.5h-17C1.2,24,1,23.8,1,23.5v-1.6C1.2,22,1.3,22,1.5,22h17c0.2,0,0.3,0,0.5-0.1V23.5z M18.5,21h-17
	C1.2,21,1,20.8,1,20.5v-1.6C1.2,19,1.3,19,1.5,19h17c0.2,0,0.3,0,0.5-0.1v1.6C19,20.8,18.8,21,18.5,21z"/>
<rect x="4" y="5" class="st0" width="12" height="1"/>
<rect x="4" y="9" class="st0" width="12" height="1"/>
<rect x="4" y="13" class="st0" width="8" height="1"/>
</svg>
