<svg className="date-picker-icon" width="16px" height="15px" viewBox="0 0 16 15" version="1.1" xmlns="http://www.w3.org/2000/svg">
  <defs />
  <g id="DatePicker-Icon" stroke="none" strokeWidth="1" fill="none" fillRule="evenodd">
    <g id="DatePicker-Icon---Three-Fields" transform="translate(-650.000000, -354.000000)" fill="#3A3D46">
      <g id="Form" transform="translate(332.000000, 236.000000)">
        <g id="Group">
          <g id="Input" transform="translate(31.000000, 82.000000)">
            <g id="Input-2" transform="translate(153.000000, 26.000000)">
              <path d="M134.56503,24.8965517 L149.43497,24.8965517 C149.751938,24.8965517 150,24.6466562 150,24.3273452 L150,11.6243211 C150,11.3050101 149.751938,11.0551146 149.43497,11.0551146 L146.637382,11.0551146 L146.637382,10.5692065 C146.637382,10.2498956 146.38932,10 146.072351,10 C145.755383,10 145.507321,10.2498956 145.507321,10.5692065 L145.507321,11.0551146 L138.589147,11.0551146 L138.589147,10.5692065 C138.589147,10.2498956 138.341085,10 138.024117,10 C137.707149,10 137.459087,10.2498956 137.459087,10.5692065 L137.459087,11.0551146 L134.56503,11.0551146 C134.248062,11.0551146 134,11.3050101 134,11.6243211 L134,24.3412283 C134,24.6466562 134.261843,24.8965517 134.56503,24.8965517 L134.56503,24.8965517 Z M135.13006,12.1935277 L137.459087,12.1935277 L137.459087,12.4989556 C137.459087,12.8182665 137.707149,13.0681621 138.024117,13.0681621 C138.341085,13.0681621 138.589147,12.8182665 138.589147,12.4989556 L138.589147,12.1935277 L145.507321,12.1935277 L145.507321,12.4989556 C145.507321,12.8182665 145.755383,13.0681621 146.072351,13.0681621 C146.38932,13.0681621 146.637382,12.8182665 146.637382,12.4989556 L146.637382,12.1935277 L148.883721,12.1935277 L148.883721,13.6651348 L135.13006,13.6651348 L135.13006,12.1935277 L135.13006,12.1935277 Z M135.13006,14.8035479 L148.86994,14.8035479 L148.86994,23.7720217 L135.13006,23.7720217 L135.13006,14.8035479 L135.13006,14.8035479 Z M146.072351,17.4135681 L137.94143,17.4135681 C137.624462,17.4135681 137.3764,17.6634637 137.3764,17.9827747 C137.3764,18.3020857 137.624462,18.5519812 137.94143,18.5519812 L146.072351,18.5519812 C146.38932,18.5519812 146.637382,18.3020857 146.637382,17.9827747 C146.637382,17.6634637 146.38932,17.4135681 146.072351,17.4135681 Z M142.006891,20.1624193 L137.94143,20.1624193 C137.624462,20.1624193 137.3764,20.4123148 137.3764,20.7316258 C137.3764,21.0509368 137.624462,21.3008323 137.94143,21.3008323 L142.006891,21.3008323 C142.323859,21.3008323 142.571921,21.0509368 142.571921,20.7316258 C142.571921,20.4123148 142.323859,20.1624193 142.006891,20.1624193 Z" id="calendar" />
            </g>
          </g>
        </g>
      </g>
    </g>
  </g>
</svg>
