
<svg width="512px" height="319px" viewBox="0 0 512 319" version="1.1" xmlns="http://www.w3.org/2000/svg" xmlns:xlink="http://www.w3.org/1999/xlink">
    <!-- Generator: Sketch 48.2 (47327) - http://www.bohemiancoding.com/sketch -->
    <desc>Created with Sketch.</desc>
    <defs></defs>
    <g id="Page-1" stroke="none" stroke-width="1" fill="none" fill-rule="evenodd">
        <g id="switch">
            <path d="M481.874,5.698 C495.728,5.698 507,16.969 507,30.824 L507,288.723 C507,302.577 495.729,313.849 481.874,313.849 L30.143,313.849 C16.289,313.849 5.017,302.578 5.017,288.723 L5.017,30.824 C5.017,16.97 16.288,5.698 30.143,5.698 L481.874,5.698 Z M481.874,0.698 L30.143,0.698 C13.505,0.698 0.017,14.186 0.017,30.824 L0.017,288.723 C0.017,305.363 13.505,318.849 30.143,318.849 L481.874,318.849 C498.514,318.849 512,305.363 512,288.723 L512,30.824 C512,14.186 498.513,0.698 481.874,0.698 Z" id="Shape" fill="#009644" fill-rule="nonzero"></path>
            <g id="Group" transform="translate(149.000000, 27.000000)">
                <rect id="Rectangle-path" fill="#FFFFFF" fill-rule="nonzero" x="24.383" y="202.583" width="171.857" height="36.584"></rect>
                <path d="M220.411,199.879 L220.397,14.767 C220.397,12.844 220.012,10.921 219.278,9.144 C218.543,7.367 217.453,5.738 216.092,4.377 C214.733,3.017 213.101,1.927 211.324,1.192 C209.547,0.457 207.623,0.073 205.701,0.073 L15.446,0.073 C13.906,0.073 12.368,0.317 10.904,0.793 C9.441,1.268 8.053,1.975 6.808,2.88 C5.563,3.784 4.461,4.885 3.557,6.13 C2.652,7.374 1.945,8.762 1.469,10.224 C0.994,11.688 0.75,13.227 0.75,14.766 L0.75,199.879 L220.411,199.879 Z" id="Shape" fill="#009644"></path>
                <path d="M82.266,82.077 C80.96,88.592 80.729,95.321 81.58,101.91 C82.433,108.499 84.368,114.949 87.29,120.915 C90.21,126.882 94.117,132.365 98.788,137.089 L113.526,122.285 C110.401,119.177 107.789,115.549 105.842,111.592 C103.897,107.637 102.616,103.353 102.072,98.977 C101.527,94.602 101.718,90.135 102.632,85.822 C103.545,81.509 105.183,77.347 107.45,73.56 C109.715,69.773 112.612,66.359 116.259,63.39 C119.906,60.422 124.306,57.9 129.018,56.272 C133.732,54.644 138.757,53.908 143.749,54.098 C148.741,54.287 153.696,55.401 158.287,57.371 C162.875,59.34 167.096,62.166 170.681,65.643 L185.309,50.963 C179.891,45.544 173.455,41.135 166.431,38.072 C159.409,35.01 151.795,33.295 144.134,33.038 C136.474,32.781 128.764,33.982 121.576,36.59 C114.387,39.198 107.719,43.213 102.263,47.842 C96.808,52.471 92.563,57.715 89.252,63.487 C85.944,69.26 83.566,75.562 82.266,82.077 Z" id="Shape" fill="#1D1D1B"></path>
                <path d="M73.549,146.122 C77.766,148.061 82.315,149.277 86.936,149.704 C91.558,150.127 96.25,149.758 100.751,148.634 C104.219,147.76 107.568,146.416 110.672,144.638 C113.774,142.864 116.633,140.659 119.151,138.114 C121.67,135.57 123.846,132.683 125.688,129.192 C127.532,125.7 129.041,121.602 129.847,117.366 C130.656,113.13 130.763,108.756 130.188,104.475 C129.612,100.193 128.348,96.005 126.46,92.12 C124.572,88.234 122.059,84.653 119.057,81.549 L133.698,66.869 C139.001,72.181 143.324,78.477 146.351,85.347 C149.377,92.216 151.105,99.659 151.415,107.158 C151.725,114.658 150.617,122.215 148.198,129.32 C146.215,135.082 143.375,140.551 139.788,145.479 C136.203,150.409 131.875,154.798 126.996,158.448 C122.115,162.102 116.684,165.015 110.949,167.077 C103.754,169.638 96.074,170.855 88.44,170.619 C80.804,170.381 73.214,168.686 66.206,165.653 C59.195,162.621 52.766,158.25 47.344,152.872 L62.11,138.305 C65.45,141.523 69.334,144.184 73.549,146.122 Z" id="Shape" fill="#FFFFFF"></path>
                <path d="M0.749466056,199.879 L0.75,254.093 C0.75,255.995 0.708,257.926 1.369,259.715 C2.031,261.499 3.149,263.127 4.522,264.484 C5.897,265.844 7.526,266.933 9.303,267.669 C11.08,268.402 13.004,268.786 14.928,268.786 L205.181,268.786 C207.105,268.786 209.03,268.402 210.807,267.669 C212.584,266.934 214.214,265.845 215.562,264.479 C216.909,263.119 217.973,261.482 218.782,259.71 C219.592,257.94 220.411,256.054 220.411,254.094 L220.411,199.88 L0.75,199.88 L0.749466056,199.879 Z M56.679,214.388 L52.89,214.511 C53.147,213.251 53.243,211.935 51.901,210.863 C50.376,209.777 48.908,209.763 47.463,209.848 C46.577,209.917 45.565,210.177 44.872,210.446 C44.543,210.574 44.328,210.686 44.125,210.816 C43.923,210.949 43.734,211.101 43.56,211.27 C42.453,212.405 42.483,213.55 43.116,214.475 C43.422,214.843 43.746,214.997 44.059,215.082 L50.94,216.892 C51.946,217.189 53.104,217.695 53.888,218.62 C54.222,219.013 54.486,219.469 54.659,219.956 C55.115,221.263 54.916,222.566 54.462,223.772 C54.047,224.837 53.12,226.117 52.057,227.081 C51.694,227.417 51.308,227.725 50.804,228.055 C50.301,228.387 49.679,228.743 49.031,229.044 C46.955,230.006 44.877,230.255 42.98,230.241 C41.719,230.234 40.328,230.097 39.241,229.867 C38.711,229.755 38.289,229.621 37.888,229.441 C37.485,229.265 37.104,229.041 36.752,228.775 C36.401,228.512 36.08,228.21 35.817,227.917 C34.176,225.982 33.884,223.772 34.546,221.893 L38.892,221.435 C38.83,221.726 38.785,222.026 38.757,222.325 C38.695,223.474 38.614,224.662 39.561,225.71 C40.083,226.219 40.467,226.456 41.112,226.683 C41.373,226.767 41.715,226.861 42.062,226.926 C43.129,227.136 44.199,227.086 45.268,226.893 C46.675,226.581 48.112,226.197 49.424,224.834 C50.333,223.637 50.675,222.413 50.009,221.365 C49.572,220.736 49.237,220.646 48.852,220.529 L43.015,219.138 C41.797,218.793 40.577,218.591 39.492,217.537 C39.212,217.269 38.963,216.968 38.752,216.641 C38.413,216.106 38.178,215.5 38.067,214.873 C37.845,213.615 38.135,212.341 38.903,211.197 C39.282,210.626 39.77,210.064 40.314,209.56 C40.857,209.063 41.457,208.624 42.097,208.26 C42.738,207.894 43.42,207.603 44.25,207.356 C45.078,207.107 46.052,206.904 47.035,206.8 C49.006,206.595 51.017,206.808 52.905,207.408 C53.519,207.589 54.102,207.881 54.613,208.266 C55.125,208.651 55.566,209.131 55.909,209.673 C56.251,210.215 56.494,210.817 56.624,211.444 C56.848,212.434 56.86,213.426 56.679,214.388 Z M80.066,229.818 L78.561,213.327 L68.213,229.818 L64.521,229.818 L63.225,207.38 L67.252,207.38 L68.018,223.256 L78.146,207.38 L81.934,207.38 L83.313,223.604 L93.204,207.38 L97.578,207.38 L83.703,229.818 L80.066,229.818 Z M101.353,229.818 L97.076,229.818 L103.289,207.409 L107.357,207.409 L101.353,229.818 Z M131.411,210.919 L124.183,210.919 L119.125,229.831 L114.918,229.831 L120.002,210.919 L112.564,210.919 L113.568,207.409 L132.359,207.423 L131.411,210.919 Z M157.671,214.413 L153.744,214.914 C153.604,213.629 153.331,212.269 151.953,211.143 C151.721,210.968 151.47,210.819 151.17,210.678 C150.871,210.539 150.523,210.407 150.168,210.299 C149.813,210.192 149.449,210.109 149.083,210.048 C146.721,209.711 144.38,210.133 142.283,211.479 C141.685,211.864 141.132,212.313 140.632,212.819 C140.134,213.323 139.69,213.884 139.312,214.483 C138.463,215.738 137.846,217.035 137.416,218.325 C136.999,219.6 136.728,220.812 136.744,221.796 C136.751,222.714 136.948,223.648 137.335,224.512 C137.628,225.123 138.075,225.724 138.759,226.218 C139.065,226.435 139.398,226.613 139.777,226.766 C140.156,226.925 140.584,227.058 141.018,227.152 C142.847,227.569 144.887,227.226 146.625,226.475 C147.592,226.064 148.679,225.349 149.743,224.404 C150.294,223.911 150.802,223.366 151.264,222.786 C151.722,222.203 152.133,221.584 152.491,220.934 L156.307,221.517 C155.805,222.527 155.198,223.482 154.498,224.364 C153.796,225.245 153.004,226.052 152.139,226.773 C151.273,227.495 150.333,228.127 149.222,228.687 C148.113,229.247 146.832,229.73 145.511,230.035 C144.188,230.339 142.821,230.46 141.467,230.388 C140.112,230.32 138.772,230.054 137.854,229.8 C136.938,229.546 136.446,229.3 135.987,229.002 C135.528,228.705 135.103,228.359 134.725,227.971 C134.346,227.577 134.015,227.142 133.709,226.62 C133.403,226.095 133.125,225.48 132.921,224.845 C132.489,223.53 132.425,222.167 132.567,220.886 C132.928,217.86 134.054,214.742 136.64,211.843 C137.103,211.332 137.6,210.846 138.158,210.382 C138.719,209.915 139.341,209.467 139.998,209.074 C142.185,207.764 144.362,207.233 146.473,207.023 C147.951,206.877 149.573,206.948 150.868,207.156 C151.509,207.259 152.034,207.388 152.545,207.564 C153.054,207.74 153.549,207.963 154.02,208.229 C154.913,208.72 155.884,209.476 156.657,210.641 C157.017,211.194 157.288,211.807 157.462,212.445 C157.627,213.084 157.7,213.75 157.671,214.413 Z M181.171,229.831 L176.95,229.831 L179.777,219.844 L167.198,219.831 L164.497,229.831 L160.29,229.831 L166.335,207.423 L170.585,207.423 L168.245,216.362 L180.752,216.362 L183.203,207.423 L187.146,207.423 L181.171,229.831 Z" id="Shape" fill="#1D1D1B"></path>
            </g>
        </g>
    </g>
</svg>
