<svg width="18px" height="18px" viewBox="0 0 18 18" version="1.1" xmlns="http://www.w3.org/2000/svg" xmlns:xlink="http://www.w3.org/1999/xlink">
    <!-- Generator: Sketch 46.2 (44496) - http://www.bohemiancoding.com/sketch -->
    <desc>Created with Sketch.</desc>
    <defs></defs>
    <g id="Message-Center" stroke="none" stroke-width="1" fill="none" fill-rule="evenodd">
        <g id="Message-Center---Message-Drawer-Open" transform="translate(-700.000000, -555.000000)" fill="#FFFFFF">
            <g id="Message-Open">
                <g id="Content" transform="translate(461.000000, 0.000000)">
                    <g id="Attachment" transform="translate(38.000000, 520.000000)">
                        <path d="M205.565778,42.1659501 L201.742906,46.0042992 C200.752365,46.9948409 200.752365,48.588994 201.742906,49.5795357 L204.420464,52.2570937 C204.900258,52.7368874 205.534824,53 206.215821,53 C206.896819,53 207.531384,52.7368874 208.011178,52.2570937 L211.818573,48.4187446 C212.298366,47.938951 212.561479,47.3043852 212.561479,46.6233878 C212.561479,46.5924334 212.561479,46.5769561 212.546002,46.5460017 C212.576956,46.5460017 212.592433,46.5614789 212.623388,46.5614789 C213.304385,46.5614789 213.938951,46.2983663 214.418745,45.8185727 L218.257094,41.9802236 C219.247635,40.9896819 219.247635,39.3955288 218.257094,38.4049871 L215.579536,35.7274291 C215.099742,35.2631126 214.465176,35 213.784179,35 C213.103181,35 212.484093,35.2631126 212.004299,35.7429063 L208.16595,39.5657782 C207.686156,40.0455718 207.423044,40.6801376 207.423044,41.361135 C207.423044,41.3920894 207.423044,41.4075666 207.438521,41.4385211 C207.407567,41.4385211 207.392089,41.4230439 207.361135,41.4230439 C206.680138,41.4230439 206.045572,41.6861565 205.565778,42.1659501 L205.565778,42.1659501 Z M209.141015,40.5408426 L212.979364,36.7024936 C213.196045,36.4858126 213.490112,36.3619948 213.799656,36.3619948 C214.1092,36.3619948 214.403267,36.4858126 214.619948,36.7024936 L217.297506,39.3800516 C217.746346,39.8288908 217.746346,40.5563199 217.297506,41.0051591 L213.44368,44.8435082 C213.010318,45.2768702 212.251935,45.2768702 211.818573,44.8435082 L210.967326,43.9922614 L211.741187,43.2184007 C212.004299,42.955288 212.004299,42.5064488 211.741187,42.2433362 C211.478074,41.9802236 211.029235,41.9802236 210.766122,42.2433362 L209.992261,43.0171969 L209.141015,42.1659501 C208.924334,41.9492691 208.800516,41.6552021 208.800516,41.3456578 C208.800516,41.0361135 208.924334,40.7575236 209.141015,40.5408426 L209.141015,40.5408426 Z M208.16595,43.1410146 L209.017197,43.9922614 L208.243336,44.7661221 C207.980224,45.0292347 207.980224,45.4780739 208.243336,45.7411866 C208.382631,45.8804815 208.55288,45.9423904 208.72313,45.9423904 C208.893379,45.9423904 209.079106,45.8804815 209.202923,45.7411866 L209.976784,44.9673259 L210.828031,45.8185727 C211.044712,46.0352537 211.16853,46.3293207 211.16853,46.638865 C211.16853,46.9484093 211.044712,47.2424764 210.828031,47.4591574 L206.989682,51.2975064 C206.55632,51.7308684 205.797936,51.7308684 205.364574,51.2975064 L202.702494,48.6044712 C202.253654,48.155632 202.253654,47.4282029 202.702494,46.9793637 L206.540843,43.1410146 C206.757524,42.9243336 207.051591,42.8005159 207.361135,42.8005159 C207.655202,42.8005159 207.949269,42.9243336 208.16595,43.1410146 L208.16595,43.1410146 Z" id="link"></path>
                    </g>
                </g>
            </g>
        </g>
    </g>
</svg>
